ffmpeg version 3.4.8-0ubuntu0.2 Copyright (c) 2000-2020 the FFmpeg developers
  built with gcc 7 (Ubuntu 7.5.0-3ubuntu1~18.04)
  configuration: --prefix=/usr --extra-version=0ubuntu0.2 --toolchain=hardened --libdir=/usr/lib/x86_64-linux-gnu --incdir=/usr/include/x86_64-linux-gnu --enable-gpl --disable-stripping --enable-avresample --enable-avisynth --enable-gnutls --enable-ladspa --enable-libass --enable-libbluray --enable-libbs2b --enable-libcaca --enable-libcdio --enable-libflite --enable-libfontconfig --enable-libfreetype --enable-libfribidi --enable-libgme --enable-libgsm --enable-libmp3lame --enable-libmysofa --enable-libopenjpeg --enable-libopenmpt --enable-libopus --enable-libpulse --enable-librubberband --enable-librsvg --enable-libshine --enable-libsnappy --enable-libsoxr --enable-libspeex --enable-libssh --enable-libtheora --enable-libtwolame --enable-libvorbis --enable-libvpx --enable-libwavpack --enable-libwebp --enable-libx265 --enable-libxml2 --enable-libxvid --enable-libzmq --enable-libzvbi --enable-omx --enable-openal --enable-opengl --enable-sdl2 --enable-libdc1394 --enable-libdrm --enable-libiec61883 --enable-chromaprint --enable-frei0r --enable-libopencv --enable-libx264 --enable-shared
  libavutil      55. 78.100 / 55. 78.100
  libavcodec     57.107.100 / 57.107.100
  libavformat    57. 83.100 / 57. 83.100
  libavdevice    57. 10.100 / 57. 10.100
  libavfilter     6.107.100 /  6.107.100
  libavresample   3.  7.  0 /  3.  7.  0
  libswscale      4.  8.100 /  4.  8.100
  libswresample   2.  9.100 /  2.  9.100
  libpostproc    54.  7.100 / 54.  7.100
[rawvideo @ 0x556fb1a05a20] Estimating duration from bitrate, this may be inaccurate
Input #0, rawvideo, from '../../SVC-Encoder-20220109T061506Z-001/SVC-Encoder/Dataset/RollerCoaster/ERP_8x8/tile_yuv/Tile_31_480x240.yuv':
  Duration: 00:00:10.00, start: 0.000000, bitrate: 41472 kb/s
    Stream #0:0: Video: rawvideo (I420 / 0x30323449), yuv420p, 480x240, 41472 kb/s, 30 tbr, 30 tbn, 30 tbc
Stream mapping:
  Stream #0:0 -> #0:0 (rawvideo (native) -> h264 (libx264))
Press [q] to stop, [?] for help
[libx264 @ 0x556fb1a12c60] using cpu capabilities: MMX2 SSE2Fast LZCNT SSSE3 SSE4.2 AVX
[libx264 @ 0x556fb1a12c60] profile High, level 2.1
Output #0, rawvideo, to 'RollerCoaster_Tile_31_480x240_x264_QP_28.h264':
  Metadata:
    encoder         : Lavf57.83.100
    Stream #0:0: Video: h264 (libx264), yuv420p, 480x240, q=-1--1, 30 fps, 30 tbn, 30 tbc
    Metadata:
      encoder         : Lavc57.107.100 libx264
    Side data:
      cpb: bitrate max/min/avg: 0/0/0 buffer size: 0 vbv_delay: -1
frame=  144 fps=0.0 q=34.0 PSNR=Y:nan U:nan V:nan *:nan size=      88kB time=00:00:03.36 bitrate= 215.0kbits/s speed=6.72x    frame=  288 fps=287 q=34.0 PSNR=Y:nan U:nan V:nan *:nan size=     185kB time=00:00:08.16 bitrate= 185.6kbits/s speed=8.15x    frame=  300 fps=255 q=34.0 LPSNR=Y:inf U:inf V:inf *:inf size=     228kB time=00:00:09.93 bitrate= 188.1kbits/s speed=8.45x    
video:228kB audio:0kB subtitle:0kB other streams:0kB global headers:0kB muxing overhead: 0.000000%
[libx264 @ 0x556fb1a12c60] frame I:2     Avg QP:25.61  size: 15272  PSNR Mean Y:39.92 U:47.02 V:50.19 Avg:41.37 Global:41.34
[libx264 @ 0x556fb1a12c60] frame P:76    Avg QP:27.61  size:  1948  PSNR Mean Y:37.63 U:46.59 V:49.08 Avg:39.17 Global:39.14
[libx264 @ 0x556fb1a12c60] frame B:222   Avg QP:33.44  size:   248  PSNR Mean Y:37.44 U:46.54 V:49.09 Avg:38.99 Global:38.97
[libx264 @ 0x556fb1a12c60] consecutive B-frames:  1.0%  0.7%  1.0% 97.3%
[libx264 @ 0x556fb1a12c60] mb I  I16..4:  3.7% 87.7%  8.7%
[libx264 @ 0x556fb1a12c60] mb P  I16..4:  0.1%  0.9%  0.3%  P16..4: 45.0% 18.6%  8.9%  0.0%  0.0%    skip:26.3%
[libx264 @ 0x556fb1a12c60] mb B  I16..4:  0.0%  0.0%  0.0%  B16..8: 40.5%  1.7%  0.2%  direct: 0.1%  skip:57.4%  L0:29.3% L1:68.8% BI: 2.0%
[libx264 @ 0x556fb1a12c60] 8x8 transform intra:82.8% inter:65.4%
[libx264 @ 0x556fb1a12c60] coded y,uvDC,uvAC intra: 92.6% 76.0% 14.4% inter: 7.4% 3.6% 0.0%
[libx264 @ 0x556fb1a12c60] i16 v,h,dc,p: 16% 16% 28% 41%
[libx264 @ 0x556fb1a12c60] i8 v,h,dc,ddl,ddr,vr,hd,vl,hu: 12% 17% 14%  7%  9%  8% 11%  8% 15%
[libx264 @ 0x556fb1a12c60] i4 v,h,dc,ddl,ddr,vr,hd,vl,hu: 17% 18% 18%  6%  9%  9% 10%  5%  9%
[libx264 @ 0x556fb1a12c60] i8c dc,h,v,p: 44% 23% 18% 14%
[libx264 @ 0x556fb1a12c60] Weighted P-Frames: Y:0.0% UV:0.0%
[libx264 @ 0x556fb1a12c60] ref P L0: 61.9% 22.1% 14.3%  1.7%
[libx264 @ 0x556fb1a12c60] ref B L0: 91.2%  8.1%  0.7%
[libx264 @ 0x556fb1a12c60] ref B L1: 89.7% 10.3%
[libx264 @ 0x556fb1a12c60] PSNR Mean Y:37.501 U:46.555 V:49.092 Avg:39.055 Global:39.025 kb/s:186.89
